<svg width="150" height="39" xmlns="http://www.w3.org/2000/svg" fill="none">

 <g>
  <title>Layer 1</title>
  <path id="svg_29" fill="black" d="m85.82907,-8.47342c-0.6335,0 -1.194,-0.1368 -1.6816,-0.4102c-0.4877,-0.278 -0.8705,-0.6995 -1.1485,-1.2646c-0.278,-0.5651 -0.417,-1.267 -0.417,-2.1055c0,-0.752 0.139,-1.4105 0.417,-1.9756c0.2826,-0.5697 0.6699,-1.0072 1.1621,-1.3125c0.4922,-0.3099 1.0482,-0.4648 1.668,-0.4648c0.6107,0 1.1462,0.1412 1.6064,0.4238c0.4603,0.2825 0.8158,0.6973 1.0665,1.2441c0.2552,0.5424 0.3828,1.1986 0.3828,1.9688c0,0.1413 0,0.2825 0,0.4238l-5.6602,0l0,-1.0117l4.9424,0l-0.6152,0.335c0,-0.5196 -0.0684,-0.9525 -0.2051,-1.2989c-0.1322,-0.3463 -0.3281,-0.6038 -0.5879,-0.7724c-0.2552,-0.1687 -0.5697,-0.253 -0.9434,-0.253c-0.3782,0 -0.7132,0.1003 -1.0049,0.3008c-0.2916,0.2005 -0.5218,0.4968 -0.6904,0.8887c-0.164,0.3919 -0.2461,0.8636 -0.2461,1.415l0,0.0752c0,0.6061 0.0821,1.112 0.2461,1.5176c0.1641,0.4056 0.3988,0.7087 0.7041,0.9092c0.3054,0.2005 0.6699,0.3008 1.0938,0.3008c0.442,0 0.8089,-0.1299 1.1006,-0.3897c0.2962,-0.2643 0.4785,-0.638 0.5468,-1.1211l1.2784,0c-0.0547,0.5104 -0.2097,0.9593 -0.4649,1.3467c-0.2552,0.3874 -0.6016,0.6904 -1.0391,0.9092c-0.4329,0.2142 -0.9365,0.3213 -1.5107,0.3213z"/>
  <text stroke="null" xml:space="preserve" text-anchor="start" font-family="Noto Sans JP" font-size="24" stroke-width="0" id="svg_39" y="27.87497" x="3.25027" fill="#000000">浏览器自动化</text>
 </g>
</svg>